<svg xmlns="http://www.w3.org/2000/svg" viewBox="0 0 120 190" width="120" height="190"><defs><linearGradient id="body-c" x1="0" y1="0" x2="1" y2="1"><stop offset="0" stop-color="#a9c7c3"/><stop offset="1" stop-color="#7a9c98"/></linearGradient><linearGradient id="case-c" x1="0" y1="0" x2="1" y2="1"><stop offset="0" stop-color="#2c4676"/><stop offset="1" stop-color="#16264a"/></linearGradient><linearGradient id="sheen-c" x1="0" y1="0" x2="1" y2="0.7"><stop offset="0" stop-color="#fff" stop-opacity=".22"/><stop offset=".42" stop-color="#fff" stop-opacity="0"/><stop offset="1" stop-color="#000" stop-opacity=".16"/></linearGradient><linearGradient id="glass-c" x1="0" y1="0" x2="1" y2="1"><stop offset="0" stop-color="#34383c"/><stop offset="1" stop-color="#15171a"/></linearGradient><linearGradient id="ring-c" x1="0" y1="0" x2="1" y2="1"><stop offset="0" stop-color="#8b9096"/><stop offset="1" stop-color="#3a3d42"/></linearGradient><radialGradient id="lens-c" cx=".4" cy=".35" r=".8"><stop offset="0" stop-color="#2a4670"/><stop offset=".55" stop-color="#0d1626"/><stop offset="1" stop-color="#030406"/></radialGradient></defs><g transform="translate(21.5 15.5)"><rect x="78.5" y="42.93" width="2.6" height="20.67" rx="1.3" fill="#101c38"/><rect x="-4.1" y="31.8" width="2.6" height="11.92" rx="1.3" fill="#101c38"/><rect x="-4.1" y="49.29" width="2.6" height="15.9" rx="1.3" fill="#101c38"/><rect x="-3" y="-3" width="83" height="165" rx="16" fill="url(#case-c)"/><rect x="-3" y="-3" width="83" height="165" rx="16" fill="none" stroke="rgba(255,255,255,.20)"/><rect x="-3" y="-3" width="83" height="165" rx="16" fill="url(#sheen-c)"/><rect x="5.5" y="5.5" width="32" height="50" rx="16" fill="#0c0d0e" stroke="rgba(255,255,255,.20)" stroke-width="1.2"/><circle cx="38.5" cy="73.14" r="23.1" fill="none" stroke="rgba(255,255,255,.34)" stroke-width="1.6"/><circle cx="38.5" cy="73.14" r="11.55" fill="none" stroke="rgba(255,255,255,.34)" stroke-width=".8" opacity=".55"/><rect x="8" y="8" width="27" height="45" rx="13.5" fill="url(#glass-c)" stroke="rgba(255,255,255,.16)"/><circle cx="21.5" cy="22" r="6.4" fill="#0b0c0e" stroke="url(#ring-c)" stroke-width="1.3"/><circle cx="21.5" cy="22" r="4.22" fill="url(#lens-c)"/><circle cx="19.71" cy="20.08" r="1.02" fill="#fff" opacity=".55"/><circle cx="21.5" cy="39" r="6.4" fill="#0b0c0e" stroke="url(#ring-c)" stroke-width="1.3"/><circle cx="21.5" cy="39" r="4.22" fill="url(#lens-c)"/><circle cx="19.71" cy="37.08" r="1.02" fill="#fff" opacity=".55"/><circle cx="29.8" cy="30.5" r="1.7" fill="#ece6c9"/></g></svg>
